<svg xmlns="http://www.w3.org/2000/svg" width="91mm" height="61mm" viewBox="0 0 91 61" role="img" aria-label="Vathy Frontier Holdings business card back">
  <defs>
    <style>
      @font-face {
        font-family: "Montserrat";
        font-style: normal;
        font-weight: 600;
        src: url("../public/fonts/montserrat-600.woff2") format("woff2");
      }
      @font-face {
        font-family: "Cinzel";
        font-style: normal;
        font-weight: 500;
        src: url("../public/fonts/cinzel-500.woff2") format("woff2");
      }
    </style>
  </defs>

  <!-- Bleed background -->
  <rect width="91" height="61" fill="#0a1628"/>

  <!-- Name & title -->
  <text
    x="7"
    y="12"
    fill="#ffffff"
    font-family="Cinzel"
    font-size="3.5"
    font-weight="500"
    letter-spacing="0.2"
  >Edgar Nyabongo T.</text>
  <text
    x="7"
    y="16.8"
    fill="#d4b98a"
    font-family="Cinzel"
    font-size="2.4"
    font-weight="500"
    letter-spacing="0.35"
  >Principal</text>
  <text
    x="7"
    y="20.8"
    fill="#d4b98a"
    font-family="Cinzel"
    font-size="2"
    font-weight="500"
    letter-spacing="0.25"
  >Vathy Frontier Holdings (U) LTD</text>

  <!-- One-liner -->
  <text
    x="7"
    y="26.5"
    fill="#d4b98a"
    font-family="Montserrat"
    font-size="1.55"
    font-weight="600"
    letter-spacing="0.06"
  >Precious Metals &#183; Global Trade &#183;</text>
  <text
    x="7"
    y="29.2"
    fill="#d4b98a"
    font-family="Montserrat"
    font-size="1.55"
    font-weight="600"
    letter-spacing="0.06"
  >Real Estate &#183; Hospitality &amp; more</text>

  <!-- Contact details -->
  <text x="7" y="35" fill="#ffffff" font-family="Montserrat" font-size="1.7" font-weight="600" letter-spacing="0.03">+256 702 667 337</text>
  <text x="7" y="38.5" fill="#ffffff" font-family="Montserrat" font-size="1.7" font-weight="600" letter-spacing="0.03">nyabongoedgar@gmail.com</text>
  <text x="7" y="42" fill="#ffffff" font-family="Montserrat" font-size="1.7" font-weight="600" letter-spacing="0.03">Kampala, Uganda</text>
  <text x="7" y="45.5" fill="#ffffff" font-family="Montserrat" font-size="1.7" font-weight="600" letter-spacing="0.03">vathy-holdings.vercel.app</text>

  <!-- QR code patch -->
  <g id="qr" transform="translate(58, 8)">
    <rect width="26" height="26" fill="#ffffff" rx="0.6"/>
    <g transform="translate(1, 1) scale(0.7272727272727273)">
    <path fill="#ffffff" d="M0 0h33v33H0z"/>
    <path stroke="#0a1628" d="M0 0.5h7m2 0h2m2 0h3m2 0h3m2 0h2m1 0h7M0 1.5h1m5 0h1m5 0h5m1 0h1m1 0h1m2 0h1m2 0h1m5 0h1M0 2.5h1m1 0h3m1 0h1m3 0h2m2 0h2m2 0h2m2 0h2m2 0h1m1 0h3m1 0h1M0 3.5h1m1 0h3m1 0h1m2 0h2m3 0h1m2 0h2m1 0h1m1 0h2m2 0h1m1 0h3m1 0h1M0 4.5h1m1 0h3m1 0h1m1 0h1m2 0h1m3 0h1m1 0h1m6 0h1m1 0h1m1 0h3m1 0h1M0 5.5h1m5 0h1m2 0h3m1 0h2m1 0h1m1 0h1m1 0h2m4 0h1m5 0h1M0 6.5h7m1 0h1m1 0h1m1 0h1m1 0h1m1 0h1m1 0h1m1 0h1m1 0h1m1 0h1m1 0h7M8 7.5h1m1 0h1m2 0h1m3 0h1m1 0h1m3 0h1M2 8.5h2m2 0h3m3 0h1m2 0h4m1 0h2m2 0h3m1 0h1M1 9.5h4m2 0h2m1 0h1m2 0h1m3 0h1m3 0h1m1 0h1m1 0h2m2 0h2m1 0h1M2 10.5h1m1 0h5m2 0h2m1 0h1m1 0h1m6 0h1m5 0h1m1 0h2M2 11.5h3m3 0h1m2 0h3m1 0h1m2 0h1m1 0h1m1 0h4m1 0h3m1 0h2M1 12.5h4m1 0h1m3 0h1m2 0h1m2 0h1m1 0h1m4 0h3m1 0h2m2 0h1M0 13.5h1m1 0h1m6 0h4m1 0h2m1 0h1m1 0h1m1 0h1m2 0h2m3 0h1M1 14.5h9m1 0h1m1 0h1m1 0h1m2 0h1m2 0h1m2 0h1m3 0h3M1 15.5h3m4 0h1m1 0h1m2 0h1m4 0h1m2 0h2m2 0h2m1 0h3m1 0h1M2 16.5h1m1 0h4m2 0h1m2 0h2m1 0h1m2 0h3m2 0h3m1 0h3m1 0h1M0 17.5h1m6 0h2m1 0h4m1 0h2m4 0h3m2 0h3m1 0h3M1 18.5h3m2 0h2m3 0h1m4 0h1m1 0h3m1 0h1m2 0h4m1 0h2M4 19.5h1m3 0h1m2 0h1m1 0h2m3 0h1m1 0h1m1 0h1m4 0h2M0 20.5h1m1 0h1m3 0h2m4 0h1m2 0h1m1 0h1m2 0h2m2 0h1m4 0h3M0 21.5h2m2 0h1m4 0h1m1 0h1m1 0h1m1 0h2m1 0h1m2 0h1m1 0h1m2 0h1m3 0h1m1 0h1M2 22.5h2m1 0h3m2 0h1m1 0h4m2 0h2m2 0h3m1 0h1m4 0h2M1 23.5h5m1 0h5m1 0h1m3 0h3m5 0h1m1 0h3m1 0h1M0 24.5h1m1 0h1m3 0h1m1 0h5m3 0h1m1 0h1m3 0h1m1 0h6m1 0h2M8 25.5h1m1 0h1m2 0h1m2 0h2m2 0h5m3 0h4M0 26.5h7m1 0h3m1 0h1m1 0h1m1 0h1m1 0h2m1 0h1m1 0h2m1 0h1m1 0h2M0 27.5h1m5 0h1m2 0h2m2 0h1m5 0h1m1 0h2m1 0h1m3 0h5M0 28.5h1m1 0h3m1 0h1m2 0h2m3 0h3m1 0h1m1 0h1m2 0h9M0 29.5h1m1 0h3m1 0h1m1 0h2m1 0h4m1 0h1m1 0h1m3 0h3m2 0h1m1 0h1m1 0h2M0 30.5h1m1 0h3m1 0h1m1 0h1m1 0h1m1 0h1m2 0h3m1 0h2m1 0h1m1 0h3m2 0h2M0 31.5h1m5 0h1m2 0h1m1 0h3m1 0h3m5 0h2m7 0h1M0 32.5h7m2 0h4m1 0h1m1 0h1m4 0h1m5 0h2m1 0h1"/>
  </g>
  </g>

  <!-- QR label -->
  <text
    x="71"
    y="37.5"
    text-anchor="middle"
    fill="#d4b98a"
    font-family="Montserrat"
    font-size="1.35"
    font-weight="600"
    letter-spacing="0.08"
  >Scan to visit</text>
  <text
    x="71"
    y="40"
    text-anchor="middle"
    fill="#d4b98a"
    font-family="Montserrat"
    font-size="1.35"
    font-weight="600"
    letter-spacing="0.08"
  >our website</text>
</svg>
